<mxfile host="Electron" agent="Mozilla/5.0 (X11; Linux x86_64) AppleWebKit/537.36 (KHTML, like Gecko) draw.io/28.0.4 Chrome/138.0.7204.97 Electron/37.2.1 Safari/537.36" version="28.0.4">
  <diagram name="Page-1" id="t1aokadcmatIK7QOjLxw">
    <mxGraphModel dx="798" dy="556" grid="1" gridSize="10" guides="1" tooltips="1" connect="1" arrows="1" fold="1" page="1" pageScale="1" pageWidth="850" pageHeight="1100" math="0" shadow="0">
      <root>
        <mxCell id="0" />
        <mxCell id="1" parent="0" />
        <mxCell id="YCzB95aFtnla0wYqCAQn-5" style="edgeStyle=orthogonalEdgeStyle;rounded=0;orthogonalLoop=1;jettySize=auto;html=1;exitX=1;exitY=0.5;exitDx=0;exitDy=0;entryX=0.5;entryY=0;entryDx=0;entryDy=0;" edge="1" parent="1" source="YCzB95aFtnla0wYqCAQn-1" target="YCzB95aFtnla0wYqCAQn-4">
          <mxGeometry relative="1" as="geometry" />
        </mxCell>
        <mxCell id="YCzB95aFtnla0wYqCAQn-6" style="edgeStyle=orthogonalEdgeStyle;rounded=0;orthogonalLoop=1;jettySize=auto;html=1;entryX=0.5;entryY=0;entryDx=0;entryDy=0;" edge="1" parent="1" source="YCzB95aFtnla0wYqCAQn-1" target="YCzB95aFtnla0wYqCAQn-7">
          <mxGeometry relative="1" as="geometry">
            <mxPoint x="280" y="280" as="targetPoint" />
          </mxGeometry>
        </mxCell>
        <mxCell id="YCzB95aFtnla0wYqCAQn-1" value="Create a new thread" style="rounded=1;whiteSpace=wrap;html=1;" vertex="1" parent="1">
          <mxGeometry x="200" y="180" width="160" height="60" as="geometry" />
        </mxCell>
        <mxCell id="YCzB95aFtnla0wYqCAQn-3" style="edgeStyle=orthogonalEdgeStyle;rounded=0;orthogonalLoop=1;jettySize=auto;html=1;entryX=0.5;entryY=0;entryDx=0;entryDy=0;" edge="1" parent="1" source="YCzB95aFtnla0wYqCAQn-2" target="YCzB95aFtnla0wYqCAQn-1">
          <mxGeometry relative="1" as="geometry" />
        </mxCell>
        <mxCell id="YCzB95aFtnla0wYqCAQn-2" value="A process starts" style="ellipse;whiteSpace=wrap;html=1;" vertex="1" parent="1">
          <mxGeometry x="200" y="90" width="160" height="50" as="geometry" />
        </mxCell>
        <mxCell id="YCzB95aFtnla0wYqCAQn-16" value="" style="edgeStyle=orthogonalEdgeStyle;rounded=0;orthogonalLoop=1;jettySize=auto;html=1;" edge="1" parent="1" source="YCzB95aFtnla0wYqCAQn-4" target="YCzB95aFtnla0wYqCAQn-15">
          <mxGeometry relative="1" as="geometry" />
        </mxCell>
        <mxCell id="YCzB95aFtnla0wYqCAQn-4" value="CHILD THREAD&lt;div&gt;running&lt;/div&gt;" style="rounded=1;whiteSpace=wrap;html=1;" vertex="1" parent="1">
          <mxGeometry x="400" y="280" width="160" height="60" as="geometry" />
        </mxCell>
        <mxCell id="YCzB95aFtnla0wYqCAQn-12" style="edgeStyle=orthogonalEdgeStyle;rounded=0;orthogonalLoop=1;jettySize=auto;html=1;exitX=0.5;exitY=1;exitDx=0;exitDy=0;entryX=0.5;entryY=0;entryDx=0;entryDy=0;" edge="1" parent="1" source="YCzB95aFtnla0wYqCAQn-7" target="YCzB95aFtnla0wYqCAQn-10">
          <mxGeometry relative="1" as="geometry" />
        </mxCell>
        <mxCell id="YCzB95aFtnla0wYqCAQn-7" value="MAIN THREAD&lt;div&gt;running&lt;/div&gt;" style="rounded=1;whiteSpace=wrap;html=1;" vertex="1" parent="1">
          <mxGeometry x="200" y="280" width="160" height="60" as="geometry" />
        </mxCell>
        <mxCell id="YCzB95aFtnla0wYqCAQn-8" value="How tf do I know if my child had finished or not?&lt;div&gt;OHH -&amp;gt; conditional variables&lt;/div&gt;" style="shape=callout;whiteSpace=wrap;html=1;perimeter=calloutPerimeter;position2=1;base=40;fillColor=#fff2cc;strokeColor=#d6b656;" vertex="1" parent="1">
          <mxGeometry x="40" y="250" width="170" height="80" as="geometry" />
        </mxCell>
        <mxCell id="YCzB95aFtnla0wYqCAQn-18" style="edgeStyle=orthogonalEdgeStyle;rounded=0;orthogonalLoop=1;jettySize=auto;html=1;exitX=0.5;exitY=1;exitDx=0;exitDy=0;entryX=0.5;entryY=0;entryDx=0;entryDy=0;" edge="1" parent="1" source="YCzB95aFtnla0wYqCAQn-10" target="YCzB95aFtnla0wYqCAQn-17">
          <mxGeometry relative="1" as="geometry" />
        </mxCell>
        <mxCell id="YCzB95aFtnla0wYqCAQn-20" value="YES" style="edgeLabel;html=1;align=center;verticalAlign=middle;resizable=0;points=[];" vertex="1" connectable="0" parent="YCzB95aFtnla0wYqCAQn-18">
          <mxGeometry x="-0.2524" y="-1" relative="1" as="geometry">
            <mxPoint x="1" as="offset" />
          </mxGeometry>
        </mxCell>
        <mxCell id="YCzB95aFtnla0wYqCAQn-10" value="Conditional variable is 1?" style="rhombus;whiteSpace=wrap;html=1;" vertex="1" parent="1">
          <mxGeometry x="200" y="380" width="160" height="80" as="geometry" />
        </mxCell>
        <mxCell id="YCzB95aFtnla0wYqCAQn-13" style="edgeStyle=orthogonalEdgeStyle;rounded=0;orthogonalLoop=1;jettySize=auto;html=1;elbow=vertical;exitX=1;exitY=0.5;exitDx=0;exitDy=0;entryX=0.5;entryY=0;entryDx=0;entryDy=0;" edge="1" parent="1" source="YCzB95aFtnla0wYqCAQn-10" target="YCzB95aFtnla0wYqCAQn-10">
          <mxGeometry relative="1" as="geometry">
            <Array as="points">
              <mxPoint x="380" y="420" />
              <mxPoint x="380" y="380" />
            </Array>
          </mxGeometry>
        </mxCell>
        <mxCell id="YCzB95aFtnla0wYqCAQn-14" value="NO" style="edgeLabel;html=1;align=center;verticalAlign=middle;resizable=0;points=[];" vertex="1" connectable="0" parent="YCzB95aFtnla0wYqCAQn-13">
          <mxGeometry x="0.1893" relative="1" as="geometry">
            <mxPoint as="offset" />
          </mxGeometry>
        </mxCell>
        <mxCell id="YCzB95aFtnla0wYqCAQn-19" style="edgeStyle=orthogonalEdgeStyle;rounded=0;orthogonalLoop=1;jettySize=auto;html=1;entryX=1;entryY=0.5;entryDx=0;entryDy=0;" edge="1" parent="1" source="YCzB95aFtnla0wYqCAQn-15" target="YCzB95aFtnla0wYqCAQn-17">
          <mxGeometry relative="1" as="geometry">
            <Array as="points">
              <mxPoint x="480" y="525" />
            </Array>
          </mxGeometry>
        </mxCell>
        <mxCell id="YCzB95aFtnla0wYqCAQn-15" value="CHILD THREAD&lt;div&gt;finishes -&amp;gt; change conditional variable to 1&lt;/div&gt;" style="whiteSpace=wrap;html=1;rounded=1;" vertex="1" parent="1">
          <mxGeometry x="400" y="380" width="160" height="60" as="geometry" />
        </mxCell>
        <mxCell id="YCzB95aFtnla0wYqCAQn-17" value="process ends" style="ellipse;whiteSpace=wrap;html=1;" vertex="1" parent="1">
          <mxGeometry x="200" y="500" width="160" height="50" as="geometry" />
        </mxCell>
      </root>
    </mxGraphModel>
  </diagram>
</mxfile>
